<mxfile host="app.diagrams.net" modified="2023-03-27T04:05:46.989Z" agent="Mozilla/5.0 (Windows NT 10.0; Win64; x64) AppleWebKit/537.36 (KHTML, like Gecko) Chrome/111.0.0.0 Safari/537.36" version="21.1.1" etag="6y4V4hab8wZIRTgNFo5J" type="github">
  <diagram name="Page-1" id="_94qAof6zQmWBNzoVpbq">
    <mxGraphModel>
      <root>
        <mxCell id="0" />
        <mxCell id="1" parent="0" />
      </root>
    </mxGraphModel>
  </diagram>
</mxfile>
